<svg width="99" height="36" viewBox="0 0 99 36" fill="none" xmlns="http://www.w3.org/2000/svg">
<g id="cta-pricing">
<path id="2 meses gr&#195;&#161;tis" d="M6.29883 8.10938V9H0.714844V8.2207L3.50977 5.10938C3.85352 4.72656 4.11914 4.40234 4.30664 4.13672C4.49805 3.86719 4.63086 3.62695 4.70508 3.41602C4.7832 3.20117 4.82227 2.98242 4.82227 2.75977C4.82227 2.47852 4.76367 2.22461 4.64648 1.99805C4.5332 1.76758 4.36523 1.58398 4.14258 1.44727C3.91992 1.31055 3.65039 1.24219 3.33398 1.24219C2.95508 1.24219 2.63867 1.31641 2.38477 1.46484C2.13477 1.60938 1.94727 1.8125 1.82227 2.07422C1.69727 2.33594 1.63477 2.63672 1.63477 2.97656H0.550781C0.550781 2.49609 0.65625 2.05664 0.867188 1.6582C1.07812 1.25977 1.39062 0.943359 1.80469 0.708984C2.21875 0.470703 2.72852 0.351562 3.33398 0.351562C3.87305 0.351562 4.33398 0.447266 4.7168 0.638672C5.09961 0.826172 5.39258 1.0918 5.5957 1.43555C5.80273 1.77539 5.90625 2.17383 5.90625 2.63086C5.90625 2.88086 5.86328 3.13477 5.77734 3.39258C5.69531 3.64648 5.58008 3.90039 5.43164 4.1543C5.28711 4.4082 5.11719 4.6582 4.92188 4.9043C4.73047 5.15039 4.52539 5.39258 4.30664 5.63086L2.02148 8.10938H6.29883ZM11.6309 3.91992V9H10.541V2.66016H11.5723L11.6309 3.91992ZM11.4082 5.58984L10.9043 5.57227C10.9082 5.13867 10.9648 4.73828 11.0742 4.37109C11.1836 4 11.3457 3.67773 11.5605 3.4043C11.7754 3.13086 12.043 2.91992 12.3633 2.77148C12.6836 2.61914 13.0547 2.54297 13.4766 2.54297C13.7734 2.54297 14.0469 2.58594 14.2969 2.67188C14.5469 2.75391 14.7637 2.88477 14.9473 3.06445C15.1309 3.24414 15.2734 3.47461 15.375 3.75586C15.4766 4.03711 15.5273 4.37695 15.5273 4.77539V9H14.4434V4.82812C14.4434 4.49609 14.3867 4.23047 14.2734 4.03125C14.1641 3.83203 14.0078 3.6875 13.8047 3.59766C13.6016 3.50391 13.3633 3.45703 13.0898 3.45703C12.7695 3.45703 12.502 3.51367 12.2871 3.62695C12.0723 3.74023 11.9004 3.89648 11.7715 4.0957C11.6426 4.29492 11.5488 4.52344 11.4902 4.78125C11.4355 5.03516 11.4082 5.30469 11.4082 5.58984ZM15.5156 4.99219L14.7891 5.21484C14.793 4.86719 14.8496 4.5332 14.959 4.21289C15.0723 3.89258 15.2344 3.60742 15.4453 3.35742C15.6602 3.10742 15.9238 2.91016 16.2363 2.76562C16.5488 2.61719 16.9062 2.54297 17.3086 2.54297C17.6484 2.54297 17.9492 2.58789 18.2109 2.67773C18.4766 2.76758 18.6992 2.90625 18.8789 3.09375C19.0625 3.27734 19.2012 3.51367 19.2949 3.80273C19.3887 4.0918 19.4355 4.43555 19.4355 4.83398V9H18.3457V4.82227C18.3457 4.4668 18.2891 4.19141 18.1758 3.99609C18.0664 3.79688 17.9102 3.6582 17.707 3.58008C17.5078 3.49805 17.2695 3.45703 16.9922 3.45703C16.7539 3.45703 16.543 3.49805 16.3594 3.58008C16.1758 3.66211 16.0215 3.77539 15.8965 3.91992C15.7715 4.06055 15.6758 4.22266 15.6094 4.40625C15.5469 4.58984 15.5156 4.78516 15.5156 4.99219ZM23.707 9.11719C23.2656 9.11719 22.8652 9.04297 22.5059 8.89453C22.1504 8.74219 21.8438 8.5293 21.5859 8.25586C21.332 7.98242 21.1367 7.6582 21 7.2832C20.8633 6.9082 20.7949 6.49805 20.7949 6.05273V5.80664C20.7949 5.29102 20.8711 4.83203 21.0234 4.42969C21.1758 4.02344 21.3828 3.67969 21.6445 3.39844C21.9062 3.11719 22.2031 2.9043 22.5352 2.75977C22.8672 2.61523 23.2109 2.54297 23.5664 2.54297C24.0195 2.54297 24.4102 2.62109 24.7383 2.77734C25.0703 2.93359 25.3418 3.15234 25.5527 3.43359C25.7637 3.71094 25.9199 4.03906 26.0215 4.41797C26.123 4.79297 26.1738 5.20312 26.1738 5.64844V6.13477H21.4395V5.25H25.0898V5.16797C25.0742 4.88672 25.0156 4.61328 24.9141 4.34766C24.8164 4.08203 24.6602 3.86328 24.4453 3.69141C24.2305 3.51953 23.9375 3.43359 23.5664 3.43359C23.3203 3.43359 23.0938 3.48633 22.8867 3.5918C22.6797 3.69336 22.502 3.8457 22.3535 4.04883C22.2051 4.25195 22.0898 4.5 22.0078 4.79297C21.9258 5.08594 21.8848 5.42383 21.8848 5.80664V6.05273C21.8848 6.35352 21.9258 6.63672 22.0078 6.90234C22.0938 7.16406 22.2168 7.39453 22.377 7.59375C22.541 7.79297 22.7383 7.94922 22.9688 8.0625C23.2031 8.17578 23.4688 8.23242 23.7656 8.23242C24.1484 8.23242 24.4727 8.1543 24.7383 7.99805C25.0039 7.8418 25.2363 7.63281 25.4355 7.37109L26.0918 7.89258C25.9551 8.09961 25.7812 8.29688 25.5703 8.48438C25.3594 8.67188 25.0996 8.82422 24.791 8.94141C24.4863 9.05859 24.125 9.11719 23.707 9.11719ZM31.1309 7.31836C31.1309 7.16211 31.0957 7.01758 31.0254 6.88477C30.959 6.74805 30.8203 6.625 30.6094 6.51562C30.4023 6.40234 30.0898 6.30469 29.6719 6.22266C29.3203 6.14844 29.002 6.06055 28.7168 5.95898C28.4355 5.85742 28.1953 5.73438 27.9961 5.58984C27.8008 5.44531 27.6504 5.27539 27.5449 5.08008C27.4395 4.88477 27.3867 4.65625 27.3867 4.39453C27.3867 4.14453 27.4414 3.9082 27.5508 3.68555C27.6641 3.46289 27.8223 3.26562 28.0254 3.09375C28.2324 2.92188 28.4805 2.78711 28.7695 2.68945C29.0586 2.5918 29.3809 2.54297 29.7363 2.54297C30.2441 2.54297 30.6777 2.63281 31.0371 2.8125C31.3965 2.99219 31.6719 3.23242 31.8633 3.5332C32.0547 3.83008 32.1504 4.16016 32.1504 4.52344H31.0664C31.0664 4.34766 31.0137 4.17773 30.9082 4.01367C30.8066 3.8457 30.6562 3.70703 30.457 3.59766C30.2617 3.48828 30.0215 3.43359 29.7363 3.43359C29.4355 3.43359 29.1914 3.48047 29.0039 3.57422C28.8203 3.66406 28.6855 3.7793 28.5996 3.91992C28.5176 4.06055 28.4766 4.20898 28.4766 4.36523C28.4766 4.48242 28.4961 4.58789 28.5352 4.68164C28.5781 4.77148 28.6523 4.85547 28.7578 4.93359C28.8633 5.00781 29.0117 5.07812 29.2031 5.14453C29.3945 5.21094 29.6387 5.27734 29.9355 5.34375C30.4551 5.46094 30.8828 5.60156 31.2188 5.76562C31.5547 5.92969 31.8047 6.13086 31.9688 6.36914C32.1328 6.60742 32.2148 6.89648 32.2148 7.23633C32.2148 7.51367 32.1562 7.76758 32.0391 7.99805C31.9258 8.22852 31.7598 8.42773 31.541 8.5957C31.3262 8.75977 31.0684 8.88867 30.7676 8.98242C30.4707 9.07227 30.1367 9.11719 29.7656 9.11719C29.207 9.11719 28.7344 9.01758 28.3477 8.81836C27.9609 8.61914 27.668 8.36133 27.4688 8.04492C27.2695 7.72852 27.1699 7.39453 27.1699 7.04297H28.2598C28.2754 7.33984 28.3613 7.57617 28.5176 7.75195C28.6738 7.92383 28.8652 8.04688 29.0918 8.12109C29.3184 8.19141 29.543 8.22656 29.7656 8.22656C30.0625 8.22656 30.3105 8.1875 30.5098 8.10938C30.7129 8.03125 30.8672 7.92383 30.9727 7.78711C31.0781 7.65039 31.1309 7.49414 31.1309 7.31836ZM36.2695 9.11719C35.8281 9.11719 35.4277 9.04297 35.0684 8.89453C34.7129 8.74219 34.4062 8.5293 34.1484 8.25586C33.8945 7.98242 33.6992 7.6582 33.5625 7.2832C33.4258 6.9082 33.3574 6.49805 33.3574 6.05273V5.80664C33.3574 5.29102 33.4336 4.83203 33.5859 4.42969C33.7383 4.02344 33.9453 3.67969 34.207 3.39844C34.4688 3.11719 34.7656 2.9043 35.0977 2.75977C35.4297 2.61523 35.7734 2.54297 36.1289 2.54297C36.582 2.54297 36.9727 2.62109 37.3008 2.77734C37.6328 2.93359 37.9043 3.15234 38.1152 3.43359C38.3262 3.71094 38.4824 4.03906 38.584 4.41797C38.6855 4.79297 38.7363 5.20312 38.7363 5.64844V6.13477H34.002V5.25H37.6523V5.16797C37.6367 4.88672 37.5781 4.61328 37.4766 4.34766C37.3789 4.08203 37.2227 3.86328 37.0078 3.69141C36.793 3.51953 36.5 3.43359 36.1289 3.43359C35.8828 3.43359 35.6562 3.48633 35.4492 3.5918C35.2422 3.69336 35.0645 3.8457 34.916 4.04883C34.7676 4.25195 34.6523 4.5 34.5703 4.79297C34.4883 5.08594 34.4473 5.42383 34.4473 5.80664V6.05273C34.4473 6.35352 34.4883 6.63672 34.5703 6.90234C34.6562 7.16406 34.7793 7.39453 34.9395 7.59375C35.1035 7.79297 35.3008 7.94922 35.5312 8.0625C35.7656 8.17578 36.0312 8.23242 36.3281 8.23242C36.7109 8.23242 37.0352 8.1543 37.3008 7.99805C37.5664 7.8418 37.7988 7.63281 37.998 7.37109L38.6543 7.89258C38.5176 8.09961 38.3438 8.29688 38.1328 8.48438C37.9219 8.67188 37.6621 8.82422 37.3535 8.94141C37.0488 9.05859 36.6875 9.11719 36.2695 9.11719ZM43.6934 7.31836C43.6934 7.16211 43.6582 7.01758 43.5879 6.88477C43.5215 6.74805 43.3828 6.625 43.1719 6.51562C42.9648 6.40234 42.6523 6.30469 42.2344 6.22266C41.8828 6.14844 41.5645 6.06055 41.2793 5.95898C40.998 5.85742 40.7578 5.73438 40.5586 5.58984C40.3633 5.44531 40.2129 5.27539 40.1074 5.08008C40.002 4.88477 39.9492 4.65625 39.9492 4.39453C39.9492 4.14453 40.0039 3.9082 40.1133 3.68555C40.2266 3.46289 40.3848 3.26562 40.5879 3.09375C40.7949 2.92188 41.043 2.78711 41.332 2.68945C41.6211 2.5918 41.9434 2.54297 42.2988 2.54297C42.8066 2.54297 43.2402 2.63281 43.5996 2.8125C43.959 2.99219 44.2344 3.23242 44.4258 3.5332C44.6172 3.83008 44.7129 4.16016 44.7129 4.52344H43.6289C43.6289 4.34766 43.5762 4.17773 43.4707 4.01367C43.3691 3.8457 43.2188 3.70703 43.0195 3.59766C42.8242 3.48828 42.584 3.43359 42.2988 3.43359C41.998 3.43359 41.7539 3.48047 41.5664 3.57422C41.3828 3.66406 41.248 3.7793 41.1621 3.91992C41.0801 4.06055 41.0391 4.20898 41.0391 4.36523C41.0391 4.48242 41.0586 4.58789 41.0977 4.68164C41.1406 4.77148 41.2148 4.85547 41.3203 4.93359C41.4258 5.00781 41.5742 5.07812 41.7656 5.14453C41.957 5.21094 42.2012 5.27734 42.498 5.34375C43.0176 5.46094 43.4453 5.60156 43.7812 5.76562C44.1172 5.92969 44.3672 6.13086 44.5312 6.36914C44.6953 6.60742 44.7773 6.89648 44.7773 7.23633C44.7773 7.51367 44.7188 7.76758 44.6016 7.99805C44.4883 8.22852 44.3223 8.42773 44.1035 8.5957C43.8887 8.75977 43.6309 8.88867 43.3301 8.98242C43.0332 9.07227 42.6992 9.11719 42.3281 9.11719C41.7695 9.11719 41.2969 9.01758 40.9102 8.81836C40.5234 8.61914 40.2305 8.36133 40.0312 8.04492C39.832 7.72852 39.7324 7.39453 39.7324 7.04297H40.8223C40.8379 7.33984 40.9238 7.57617 41.0801 7.75195C41.2363 7.92383 41.4277 8.04688 41.6543 8.12109C41.8809 8.19141 42.1055 8.22656 42.3281 8.22656C42.625 8.22656 42.873 8.1875 43.0723 8.10938C43.2754 8.03125 43.4297 7.92383 43.5352 7.78711C43.6406 7.65039 43.6934 7.49414 43.6934 7.31836ZM53.2852 2.66016H54.2695V8.86523C54.2695 9.42383 54.1562 9.90039 53.9297 10.2949C53.7031 10.6895 53.3867 10.9883 52.9805 11.1914C52.5781 11.3984 52.1133 11.502 51.5859 11.502C51.3672 11.502 51.1094 11.4668 50.8125 11.3965C50.5195 11.3301 50.2305 11.2148 49.9453 11.0508C49.6641 10.8906 49.4277 10.6738 49.2363 10.4004L49.8047 9.75586C50.0703 10.0762 50.3477 10.2988 50.6367 10.4238C50.9297 10.5488 51.2188 10.6113 51.5039 10.6113C51.8477 10.6113 52.1445 10.5469 52.3945 10.418C52.6445 10.2891 52.8379 10.0977 52.9746 9.84375C53.1152 9.59375 53.1855 9.28516 53.1855 8.91797V4.05469L53.2852 2.66016ZM48.9199 5.90039V5.77734C48.9199 5.29297 48.9766 4.85352 49.0898 4.45898C49.207 4.06055 49.373 3.71875 49.5879 3.43359C49.8066 3.14844 50.0703 2.92969 50.3789 2.77734C50.6875 2.62109 51.0352 2.54297 51.4219 2.54297C51.8203 2.54297 52.168 2.61328 52.4648 2.75391C52.7656 2.89062 53.0195 3.0918 53.2266 3.35742C53.4375 3.61914 53.6035 3.93555 53.7246 4.30664C53.8457 4.67773 53.9297 5.09766 53.9766 5.56641V6.10547C53.9336 6.57031 53.8496 6.98828 53.7246 7.35938C53.6035 7.73047 53.4375 8.04688 53.2266 8.30859C53.0195 8.57031 52.7656 8.77148 52.4648 8.91211C52.1641 9.04883 51.8125 9.11719 51.4102 9.11719C51.0312 9.11719 50.6875 9.03711 50.3789 8.87695C50.0742 8.7168 49.8125 8.49219 49.5938 8.20312C49.375 7.91406 49.207 7.57422 49.0898 7.18359C48.9766 6.78906 48.9199 6.36133 48.9199 5.90039ZM50.0039 5.77734V5.90039C50.0039 6.2168 50.0352 6.51367 50.0977 6.79102C50.1641 7.06836 50.2637 7.3125 50.3965 7.52344C50.5332 7.73438 50.707 7.90039 50.918 8.02148C51.1289 8.13867 51.3809 8.19727 51.6738 8.19727C52.0332 8.19727 52.3301 8.12109 52.5645 7.96875C52.7988 7.81641 52.9844 7.61523 53.1211 7.36523C53.2617 7.11523 53.3711 6.84375 53.4492 6.55078V5.13867C53.4062 4.92383 53.3398 4.7168 53.25 4.51758C53.1641 4.31445 53.0508 4.13477 52.9102 3.97852C52.7734 3.81836 52.6035 3.69141 52.4004 3.59766C52.1973 3.50391 51.959 3.45703 51.6855 3.45703C51.3887 3.45703 51.1328 3.51953 50.918 3.64453C50.707 3.76562 50.5332 3.93359 50.3965 4.14844C50.2637 4.35938 50.1641 4.60547 50.0977 4.88672C50.0352 5.16406 50.0039 5.46094 50.0039 5.77734ZM57 3.65625V9H55.916V2.66016H56.9707L57 3.65625ZM58.9805 2.625L58.9746 3.63281C58.8848 3.61328 58.7988 3.60156 58.7168 3.59766C58.6387 3.58984 58.5488 3.58594 58.4473 3.58594C58.1973 3.58594 57.9766 3.625 57.7852 3.70312C57.5938 3.78125 57.4316 3.89062 57.2988 4.03125C57.166 4.17188 57.0605 4.33984 56.9824 4.53516C56.9082 4.72656 56.8594 4.9375 56.8359 5.16797L56.5312 5.34375C56.5312 4.96094 56.5684 4.60156 56.6426 4.26562C56.7207 3.92969 56.8398 3.63281 57 3.375C57.1602 3.11328 57.3633 2.91016 57.6094 2.76562C57.8594 2.61719 58.1562 2.54297 58.5 2.54297C58.5781 2.54297 58.668 2.55273 58.7695 2.57227C58.8711 2.58789 58.9414 2.60547 58.9805 2.625ZM63.4863 7.91602V4.65234C63.4863 4.40234 63.4355 4.18555 63.334 4.00195C63.2363 3.81445 63.0879 3.66992 62.8887 3.56836C62.6895 3.4668 62.4434 3.41602 62.1504 3.41602C61.877 3.41602 61.6367 3.46289 61.4297 3.55664C61.2266 3.65039 61.0664 3.77344 60.9492 3.92578C60.8359 4.07812 60.7793 4.24219 60.7793 4.41797H59.6953C59.6953 4.19141 59.7539 3.9668 59.8711 3.74414C59.9883 3.52148 60.1562 3.32031 60.375 3.14062C60.5977 2.95703 60.8633 2.8125 61.1719 2.70703C61.4844 2.59766 61.832 2.54297 62.2148 2.54297C62.6758 2.54297 63.082 2.62109 63.4336 2.77734C63.7891 2.93359 64.0664 3.16992 64.2656 3.48633C64.4688 3.79883 64.5703 4.19141 64.5703 4.66406V7.61719C64.5703 7.82812 64.5879 8.05273 64.623 8.29102C64.6621 8.5293 64.7188 8.73438 64.793 8.90625V9H63.6621C63.6074 8.875 63.5645 8.70898 63.5332 8.50195C63.502 8.29102 63.4863 8.0957 63.4863 7.91602ZM63.6738 5.15625L63.6855 5.91797H62.5898C62.2812 5.91797 62.0059 5.94336 61.7637 5.99414C61.5215 6.04102 61.3184 6.11328 61.1543 6.21094C60.9902 6.30859 60.8652 6.43164 60.7793 6.58008C60.6934 6.72461 60.6504 6.89453 60.6504 7.08984C60.6504 7.28906 60.6953 7.4707 60.7852 7.63477C60.875 7.79883 61.0098 7.92969 61.1895 8.02734C61.373 8.12109 61.5977 8.16797 61.8633 8.16797C62.1953 8.16797 62.4883 8.09766 62.7422 7.95703C62.9961 7.81641 63.1973 7.64453 63.3457 7.44141C63.498 7.23828 63.5801 7.04102 63.5918 6.84961L64.0547 7.37109C64.0273 7.53516 63.9531 7.7168 63.832 7.91602C63.7109 8.11523 63.5488 8.30664 63.3457 8.49023C63.1465 8.66992 62.9082 8.82031 62.6309 8.94141C62.3574 9.05859 62.0488 9.11719 61.7051 9.11719C61.2754 9.11719 60.8984 9.0332 60.5742 8.86523C60.2539 8.69727 60.0039 8.47266 59.8242 8.19141C59.6484 7.90625 59.5605 7.58789 59.5605 7.23633C59.5605 6.89648 59.627 6.59766 59.7598 6.33984C59.8926 6.07812 60.084 5.86133 60.334 5.68945C60.584 5.51367 60.8848 5.38086 61.2363 5.29102C61.5879 5.20117 61.9805 5.15625 62.4141 5.15625H63.6738ZM61.7344 1.72266L62.8711 0H64.1777L62.6074 1.72266H61.7344ZM68.9297 2.66016V3.49219H65.502V2.66016H68.9297ZM66.6621 1.11914H67.7461V7.42969C67.7461 7.64453 67.7793 7.80664 67.8457 7.91602C67.9121 8.02539 67.998 8.09766 68.1035 8.13281C68.209 8.16797 68.3223 8.18555 68.4434 8.18555C68.5332 8.18555 68.627 8.17773 68.7246 8.16211C68.8262 8.14258 68.9023 8.12695 68.9531 8.11523L68.959 9C68.873 9.02734 68.7598 9.05273 68.6191 9.07617C68.4824 9.10352 68.3164 9.11719 68.1211 9.11719C67.8555 9.11719 67.6113 9.06445 67.3887 8.95898C67.166 8.85352 66.9883 8.67773 66.8555 8.43164C66.7266 8.18164 66.6621 7.8457 66.6621 7.42383V1.11914ZM71.3789 2.66016V9H70.2891V2.66016H71.3789ZM70.207 0.978516C70.207 0.802734 70.2598 0.654297 70.3652 0.533203C70.4746 0.412109 70.6348 0.351562 70.8457 0.351562C71.0527 0.351562 71.2109 0.412109 71.3203 0.533203C71.4336 0.654297 71.4902 0.802734 71.4902 0.978516C71.4902 1.14648 71.4336 1.29102 71.3203 1.41211C71.2109 1.5293 71.0527 1.58789 70.8457 1.58789C70.6348 1.58789 70.4746 1.5293 70.3652 1.41211C70.2598 1.29102 70.207 1.14648 70.207 0.978516ZM76.8105 7.31836C76.8105 7.16211 76.7754 7.01758 76.7051 6.88477C76.6387 6.74805 76.5 6.625 76.2891 6.51562C76.082 6.40234 75.7695 6.30469 75.3516 6.22266C75 6.14844 74.6816 6.06055 74.3965 5.95898C74.1152 5.85742 73.875 5.73438 73.6758 5.58984C73.4805 5.44531 73.3301 5.27539 73.2246 5.08008C73.1191 4.88477 73.0664 4.65625 73.0664 4.39453C73.0664 4.14453 73.1211 3.9082 73.2305 3.68555C73.3438 3.46289 73.502 3.26562 73.7051 3.09375C73.9121 2.92188 74.1602 2.78711 74.4492 2.68945C74.7383 2.5918 75.0605 2.54297 75.416 2.54297C75.9238 2.54297 76.3574 2.63281 76.7168 2.8125C77.0762 2.99219 77.3516 3.23242 77.543 3.5332C77.7344 3.83008 77.8301 4.16016 77.8301 4.52344H76.7461C76.7461 4.34766 76.6934 4.17773 76.5879 4.01367C76.4863 3.8457 76.3359 3.70703 76.1367 3.59766C75.9414 3.48828 75.7012 3.43359 75.416 3.43359C75.1152 3.43359 74.8711 3.48047 74.6836 3.57422C74.5 3.66406 74.3652 3.7793 74.2793 3.91992C74.1973 4.06055 74.1562 4.20898 74.1562 4.36523C74.1562 4.48242 74.1758 4.58789 74.2148 4.68164C74.2578 4.77148 74.332 4.85547 74.4375 4.93359C74.543 5.00781 74.6914 5.07812 74.8828 5.14453C75.0742 5.21094 75.3184 5.27734 75.6152 5.34375C76.1348 5.46094 76.5625 5.60156 76.8984 5.76562C77.2344 5.92969 77.4844 6.13086 77.6484 6.36914C77.8125 6.60742 77.8945 6.89648 77.8945 7.23633C77.8945 7.51367 77.8359 7.76758 77.7188 7.99805C77.6055 8.22852 77.4395 8.42773 77.2207 8.5957C77.0059 8.75977 76.748 8.88867 76.4473 8.98242C76.1504 9.07227 75.8164 9.11719 75.4453 9.11719C74.8867 9.11719 74.4141 9.01758 74.0273 8.81836C73.6406 8.61914 73.3477 8.36133 73.1484 8.04492C72.9492 7.72852 72.8496 7.39453 72.8496 7.04297H73.9395C73.9551 7.33984 74.041 7.57617 74.1973 7.75195C74.3535 7.92383 74.5449 8.04688 74.7715 8.12109C74.998 8.19141 75.2227 8.22656 75.4453 8.22656C75.7422 8.22656 75.9902 8.1875 76.1895 8.10938C76.3926 8.03125 76.5469 7.92383 76.6523 7.78711C76.7578 7.65039 76.8105 7.49414 76.8105 7.31836Z" fill="#C77512"/>
<path id="Vector 2" d="M72 32.9735L76.9472 35.9497L77.0511 30.1772L72 32.9735ZM73.4383 33.4994C73.7144 33.5007 73.9393 33.2779 73.9406 33.0018C73.9419 32.7256 73.7191 32.5007 73.443 32.4994L73.4383 33.4994ZM76.265 32.4351C75.9892 32.4493 75.7771 32.6843 75.7912 32.9601C75.8053 33.2358 76.0403 33.448 76.3161 33.4338L76.265 32.4351ZM79.1841 33.1996C79.4585 33.1685 79.6557 32.9209 79.6246 32.6465C79.5935 32.3721 79.3458 32.1749 79.0714 32.206L79.1841 33.1996ZM81.8582 31.7939C81.5866 31.8439 81.4071 32.1046 81.4571 32.3762C81.5071 32.6477 81.7678 32.8273 82.0394 32.7773L81.8582 31.7939ZM84.8681 32.1422C85.1348 32.0708 85.2932 31.7967 85.2219 31.5299C85.1505 31.2632 84.8764 31.1048 84.6097 31.1761L84.8681 32.1422ZM87.2773 30.3335C87.0181 30.429 86.8855 30.7164 86.981 30.9755C87.0765 31.2347 87.3639 31.3673 87.623 31.2718L87.2773 30.3335ZM90.3002 30.1195C90.5473 29.9961 90.6475 29.6958 90.5241 29.4488C90.4007 29.2017 90.1003 29.1015 89.8533 29.225L90.3002 30.1195ZM92.2522 27.8241C92.0242 27.9798 91.9655 28.2909 92.1212 28.519C92.2769 28.747 92.588 28.8057 92.8161 28.65L92.2522 27.8241ZM95.092 26.8002C95.2896 26.6073 95.2934 26.2907 95.1005 26.0932C94.9076 25.8956 94.591 25.8918 94.3934 26.0847L95.092 26.8002ZM96.1284 23.972C95.9803 24.205 96.0491 24.514 96.2822 24.6622C96.5152 24.8103 96.8242 24.7414 96.9724 24.5084L96.1284 23.972ZM98.1954 21.7759C98.2676 21.5094 98.11 21.2348 97.8435 21.1626C97.5769 21.0905 97.3023 21.248 97.2302 21.5146L98.1954 21.7759ZM97.4725 18.863C97.496 19.1382 97.7381 19.3422 98.0132 19.3186C98.2884 19.2951 98.4924 19.053 98.4689 18.7779L97.4725 18.863ZM97.7161 15.8709C97.6055 15.6179 97.3107 15.5025 97.0577 15.6131C96.8047 15.7237 96.6892 16.0185 96.7999 16.2715L97.7161 15.8709ZM95.3889 13.9508C95.5597 14.1678 95.8741 14.2052 96.0911 14.0344C96.3081 13.8636 96.3455 13.5493 96.1747 13.3323L95.3889 13.9508ZM94.1333 11.2046C93.9253 11.0229 93.6095 11.0443 93.4278 11.2523C93.2462 11.4603 93.2676 11.7762 93.4756 11.9578L94.1333 11.2046ZM91.2672 10.2909C91.4979 10.4427 91.808 10.3788 91.9598 10.1481C92.1116 9.91742 92.0476 9.60736 91.8169 9.45556L91.2672 10.2909ZM89.2935 7.98515C89.0482 7.85822 88.7465 7.95414 88.6196 8.19938C88.4927 8.44463 88.5886 8.74633 88.8338 8.87325L89.2935 7.98515ZM86.2976 7.69341C86.5523 7.8 86.8453 7.67991 86.9519 7.42517C87.0585 7.17043 86.9384 6.87751 86.6836 6.77092L86.2976 7.69341ZM83.9908 5.7507C83.7296 5.66118 83.4453 5.80038 83.3558 6.06161C83.2662 6.32284 83.4054 6.60718 83.6667 6.6967L83.9908 5.7507ZM80.971 5.85761C81.2367 5.93259 81.513 5.77793 81.588 5.51216C81.6629 5.24639 81.5083 4.97016 81.2425 4.89518L80.971 5.85761ZM76.3161 33.4338C77.3003 33.3834 78.2566 33.3048 79.1841 33.1996L79.0714 32.206C78.165 32.3088 77.2292 32.3858 76.265 32.4351L76.3161 33.4338ZM82.0394 32.7773C83.0212 32.5964 83.9646 32.3838 84.8681 32.1422L84.6097 31.1761C83.7326 31.4107 82.815 31.6176 81.8582 31.7939L82.0394 32.7773ZM87.623 31.2718C88.5719 30.9221 89.4652 30.5367 90.3002 30.1195L89.8533 29.225C89.053 29.6248 88.1936 29.9958 87.2773 30.3335L87.623 31.2718ZM92.8161 28.65C93.6634 28.0714 94.4238 27.4526 95.092 26.8002L94.3934 26.0847C93.7702 26.6931 93.0556 27.2756 92.2522 27.8241L92.8161 28.65ZM96.9724 24.5084C97.5293 23.6321 97.9407 22.7168 98.1954 21.7759L97.2302 21.5146C97.0038 22.3506 96.6356 23.1739 96.1284 23.972L96.9724 24.5084ZM98.4689 18.7779C98.3858 17.8054 98.1361 16.8314 97.7161 15.8709L96.7999 16.2715C97.1783 17.137 97.3992 18.0047 97.4725 18.863L98.4689 18.7779ZM96.1747 13.3323C95.6019 12.6045 94.922 11.8932 94.1333 11.2046L93.4756 11.9578C94.2219 12.6096 94.858 13.2762 95.3889 13.9508L96.1747 13.3323ZM91.8169 9.45556C91.0453 8.94781 90.2046 8.4567 89.2935 7.98515L88.8338 8.87325C89.7164 9.33001 90.5268 9.8037 91.2672 10.2909L91.8169 9.45556ZM86.6836 6.77092C85.8346 6.41562 84.9372 6.075 83.9908 5.7507L83.6667 6.6967C84.5933 7.01425 85.47 7.34709 86.2976 7.69341L86.6836 6.77092ZM81.2425 4.89518C80.7814 4.76509 80.3105 4.6385 79.8296 4.51558L79.5819 5.48442C80.055 5.60536 80.518 5.7298 80.971 5.85761L81.2425 4.89518Z" fill="#C77512"/>
</g>
</svg>
