<svg width="121" height="53" viewBox="0 0 121 53" fill="none" xmlns="http://www.w3.org/2000/svg">
<path d="M0 32V2.5H1.5V32H0ZM3 32V2.5H4.5V32H3ZM6 32V2.5H10.5V32H6ZM15 32V2.5H16.5V32H15ZM18 32V2.5H22.5V32H18ZM8.35 36.35H11.05C12.0167 36.35 12.7667 36.4833 13.3 36.75C13.8667 37.0167 14.35 37.4167 14.75 37.95C15.5167 38.95 15.9 40.3667 15.9 42.2C15.8333 44.1 15.4 45.5333 14.6 46.5C13.8 47.5 12.55 47.9833 10.85 47.95H8.35V36.35ZM10.75 46.95C13.3167 46.95 14.6 45.4 14.6 42.3C14.6 40.7333 14.3167 39.5333 13.75 38.7C13.15 37.8667 12.2167 37.45 10.95 37.45H9.6V46.95H10.75ZM24.0234 32V2.5H25.5234V32H24.0234ZM27.0234 32V2.5H31.5234V32H27.0234ZM33.0234 32V2.5H37.5234V32H33.0234ZM39.0234 32V2.5H40.5234V32H39.0234ZM45.0234 32V2.5H46.5234V32H45.0234ZM32.4734 36.35H36.1734C37.4068 36.35 38.3234 36.6667 38.9234 37.3C39.5568 37.9 39.8734 38.6833 39.8734 39.65C39.8734 40.5833 39.5734 41.35 38.9734 41.95C38.3734 42.55 37.4734 42.85 36.2734 42.85H33.8234V47.95H32.4734V36.35ZM36.1234 41.7C36.9568 41.7 37.5568 41.5167 37.9234 41.15C38.3234 40.8167 38.5234 40.3333 38.5234 39.7C38.5234 39.0667 38.3234 38.5667 37.9234 38.2C37.5234 37.8 36.9401 37.6 36.1734 37.6H33.8234V41.7H36.1234ZM48.0469 32V2.5H49.5469V32H48.0469ZM51.0469 32V2.5H55.5469V32H51.0469ZM57.0469 32V2.5H58.5469V32H57.0469ZM60.0469 32V2.5H61.5469V32H60.0469ZM66.0469 32V2.5H70.5469V32H66.0469ZM56.6469 36.35H58.1469V36.5C58.0802 36.5667 58.0302 36.65 57.9969 36.75C57.9969 36.8167 57.9969 36.9667 57.9969 37.2V46.85H63.5469V47.95H56.6469V36.35ZM72.0703 32V2.5H76.5703V32H72.0703ZM78.0703 32V2.5H79.5703V32H78.0703ZM81.0703 32V2.5H82.5703V32H81.0703ZM87.0703 32V2.5H88.5703V32H87.0703ZM90.0703 32V2.5H94.5703V32H90.0703ZM85.9203 44.55H82.1703L81.0203 47.95H79.7203L83.9703 36.15H84.1203L88.4203 47.95H87.0703L85.9203 44.55ZM85.5703 43.55L84.0703 39.15L82.5203 43.55H85.5703ZM96.0938 32V2.5H97.5938V32H96.0938ZM99.0938 32V2.5H103.594V32H99.0938ZM105.094 32V2.5H106.594V32H105.094ZM111.094 32V2.5H112.594V32H111.094ZM114.094 32V2.5H118.594V32H114.094ZM104.344 36.35H107.644C108.91 36.35 109.86 36.6 110.494 37.1C111.16 37.6 111.494 38.3 111.494 39.2C111.494 39.7667 111.344 40.2833 111.044 40.75C110.71 41.2167 110.277 41.55 109.744 41.75C110.41 41.9833 110.944 42.3667 111.344 42.9C111.744 43.4667 111.944 44.0667 111.944 44.7C111.944 45.7 111.577 46.5 110.844 47.1C110.144 47.6667 109.06 47.95 107.594 47.95H104.344V36.35ZM107.444 41.15C109.277 41.15 110.194 40.5333 110.194 39.3C110.194 38.7667 109.977 38.3333 109.544 38C109.144 37.6333 108.51 37.45 107.644 37.45H105.594V41.15H107.444ZM107.844 46.8C109.644 46.8 110.544 46.0667 110.544 44.6C110.544 43.0333 109.527 42.25 107.494 42.25H105.594V46.8H107.844Z" fill="black"/>
</svg>
